<svg xmlns:xlink="http://www.w3.org/1999/xlink" xmlns="http://www.w3.org/2000/svg" viewBox="0 0 370.37158469945354 78.06575787084779" preserveAspectRatio="xMidYMid meet" class="css-18yrpox" id="fhbhedbg" width="370.37158469945354"  height="78.06575787084779" ><defs id="SvgjsDefs4827"></defs><g id="SvgjsG4828" featurekey="symbolFeature-0" transform="matrix(0.144015560342844,0,0,0.144015560342844,-7.285575814481063,-44.39304794386748)" fill="#FDFDFD"><g xmlns="http://www.w3.org/2000/svg" fill="#FDFDFD"><path d="M241,495.7c32.8,8.6,62.2,13.3,89.2,24c41.8,16.5,80.6,5.5,120.5-5.2c79.6-21.3,159.5-41.6,239.2-62.4   c2.4-0.6,4.6-1.8,7-2.3c8.8-1.9,17.9-4.1,17.7-15.2c-0.2-11.2-10.1-13.1-18.4-14.9c-42.7-9.1-85.6-17.8-128.4-26.5   C510.6,381.7,453.1,371,396,358.4c-24-5.3-45,4.4-66.9,8.9c-86.8,17.7-173.4,36.6-260.1,54.9c-8.8,1.9-18,2.9-18.4,14.2   c-0.4,12.5,10,13.8,19,16.1c19.1,4.9,37.9,11.1,57.2,14.3c14.5,2.4,17.8,9.3,16.8,22.4c-1.2,15.7,2.6,32-9.1,45.8   c-2.3,2.8-3.5,9.4-1.8,12.2c13.2,22.2,2.4,44.7,0.8,66.7c-4,55.4-0.1,109.8,16.2,163c6.8,22.2,18.1,29.3,41.5,28.4   c20.4-0.8,38.1-9.5,54.9-20.1c12.9-8.2,7.3-18.6,0.3-26.7c-36.7-42.6-52.2-94.4-64.7-147.5c-3.1-13.2-10.7-29.3-6.1-39.4   c10.3-22.7,2.4-40.7-4-61.1c-5.7-18.2,2.9-27.6,22.8-32c54.6-12,108.7-26.5,163-40c2.4-0.6,4.9-0.6,7.3-1.2   c8.5-2.1,16.8-2,19.7,7.9c3.1,10.9-4.3,15.9-13.6,18.2c-30.4,7.6-60.9,15-91.3,22.6C268.2,488.7,257,491.6,241,495.7z" fill="#FDFDFD"></path><path d="M225,577.3c0,79.4,38.7,122,126.1,138.8c56.4,10.8,106.2-5.6,150.9-38.7c25.8-19.1,37.6-46.7,38.4-78.7   c0.4-16.1-0.6-32.2,0.3-48.2c0.7-13.6-1-18.5-17-13.8c-41.3,12-83.3,21.4-124.9,32.4c-11.1,2.9-21.7,3.1-32.8,0.3   c-42.9-10.9-85.9-21.1-128.6-32.7c-10.3-2.8-13.3-1.3-12.6,9.2C225.4,556.2,225,566.8,225,577.3z" fill="#FDFDFD"></path></g></g><g id="SvgjsG4829" featurekey="nameFeature-0" transform="matrix(1.2978163294115885,0,0,1.2978163294115885,112.29096867047443,-14.831323064991272)" fill="#111111"><path d="M19.429 17.714 l-9.1429 0 l0 16 l9.1429 0 l2.2857 -2.2857 l5.4286 0 l0 4.2857 l-4.2857 4.2857 l-15.714 0 l-4.2857 -4.2857 l0 -20 l4.2857 -4.2857 l15.714 0 l4.2857 4.2857 l0 4.2857 l-5.4286 0 z M57.14257142857143 11.428999999999998 l4.2857 4.2857 l0 20 l-4.2857 4.2857 l-16.571 0 l-4.2857 -4.2857 l0 -20 l4.2857 -4.2857 l16.571 0 z M53.99957142857143 33.7143 l0 -16 l-10.286 0 l0 16 l10.286 0 z M70.57138571428573 35.7143 l0 -24.286 l7.4286 0 l0 22.286 l10.286 0 l0 -22.286 l7.4286 0 l0 24.286 l-4.2857 4.2857 l-16.571 0 z M130.571 15.713999999999999 l0 10 l-4.2857 4.2857 l4.2857 6.5714 l0 3.4286 l-6.8571 0 l-5.9429 -9.7143 l-5.4857 0 l0 9.7143 l-7.4286 0 l0 -28.571 l21.429 0 z M123.143 24 l0 -6.2857 l-10.857 0 l0 6.2857 l10.857 0 z M157.71414285714286 17.714 l-10.571 0 l0 4.8571 l14 0 l4.2857 4.2857 l0 8.8571 l-4.2857 4.2857 l-17.143 0 l-4.2857 -4.2857 l0 -4.2857 l5.4286 0 l2.2857 2.2857 l10.571 0 l0 -4.8571 l-14 0 l-4.2857 -4.2857 l0 -8.8571 l4.2857 -4.2857 l17.143 0 l4.2857 4.2857 l0 4.2857 l-5.4286 0 z M198.85728571428572 17.714 l-16.857 0 l0 4.8571 l14.571 0 l0 6.2857 l-14.571 0 l0 4.8571 l16.857 0 l0 6.2857 l-20 0 l-4.2857 -4.2857 l0 -24.286 l24.286 0 l0 6.2857 z" fill="#FDFDFD"></path></g><g id="SvgjsG4830" featurekey="nameFeature-1" transform="matrix(1.0844116961842976,0,0,1.0844116961842976,112.901728366252,34.6074450312577)" fill="#111111"><path d="M24 11.428999999999998 l7.4286 0 l0 28.571 l-7.4286 0 l0 -16 l-5.0286 9.7143 l-3.7143 0 l-4.9714 -9.7143 l0 16 l-7.4286 0 l0 -28.571 l7.4286 0 l6.8571 12.971 z M40.57138571428572 40 l0 -24.286 l4.2857 -4.2857 l16.571 0 l4.2857 4.2857 l0 24.286 l-7.4286 0 l0 -8 l-10.286 0 l0 8 l-7.4286 0 z M48.00028571428572 25.714 l10.286 0 l0 -8 l-10.286 0 l0 8 z M92.571 11.428999999999998 l7.4286 0 l0 28.571 l-6.5714 0 l-11.143 -16 l0 16 l-7.4286 0 l0 -28.571 l6.5714 0 l11.143 15.886 l0 -15.886 z M109.14281428571428 40 l0 -24.286 l4.2857 -4.2857 l16.571 0 l4.2857 4.2857 l0 24.286 l-7.4286 0 l0 -8 l-10.286 0 l0 8 l-7.4286 0 z M116.57171428571428 25.714 l10.286 0 l0 -8 l-10.286 0 l0 8 z M161.42842857142855 17.714 l-10.571 0 l0 16 l10.857 0 l0 -4.8571 l-6.5714 0 l0 -6.2857 l14 0 l0 13.143 l-4.2857 4.2857 l-17.143 0 l-4.2857 -4.2857 l0 -20 l4.2857 -4.2857 l17.143 0 l4.2857 4.2857 l0 4.2857 l-5.4286 0 z M202.57157142857142 17.714 l-16.857 0 l0 4.8571 l14.571 0 l0 6.2857 l-14.571 0 l0 4.8571 l16.857 0 l0 6.2857 l-20 0 l-4.2857 -4.2857 l0 -24.286 l24.286 0 l0 6.2857 z M237.42814285714283 15.713999999999999 l0 10 l-4.2857 4.2857 l4.2857 6.5714 l0 3.4286 l-6.8571 0 l-5.9429 -9.7143 l-5.4857 0 l0 9.7143 l-7.4286 0 l0 -28.571 l21.429 0 z M230.00014285714283 24 l0 -6.2857 l-10.857 0 l0 6.2857 l10.857 0 z" fill="#FDFDFD"></path></g></svg>